<svg width="402" height="159" viewBox="0 0 402 159" fill="none" xmlns="http://www.w3.org/2000/svg">
<path fill-rule="evenodd" clip-rule="evenodd" d="M19.9028 44.0946H11.9603V78.1407H0.302734V0.679199H11.9603V31.7052H19.9028V0.679199H31.5591V78.1407H19.9028V44.0946Z" fill="#104FFF"/>
<path fill-rule="evenodd" clip-rule="evenodd" d="M51.9959 79.1603H49.6995C40.3062 79.1603 35.2969 74.0512 35.2969 64.4544V48.9136H46.9865V62.4739C46.9865 66.0199 48.1341 67.896 50.8483 67.896C53.6657 67.896 54.71 66.0199 54.71 61.2215V59.4485C54.71 53.9219 54.1878 51.9402 49.9096 46.4124L42.3937 36.8169C37.3844 30.3498 35.9235 25.3439 35.9235 17.6257V15.1233C35.9235 4.79719 41.1405 0 50.4305 0H52.6225C62.3279 0 66.0852 4.27536 66.0852 13.4547V26.1788H54.71V15.019C54.71 12.411 54.1878 10.4293 51.3693 10.4293C48.5519 10.4293 47.9253 12.2023 47.9253 15.8527V17.3138C47.9253 21.6947 48.7608 24.0927 52.7257 29.203L60.2403 38.903C65.563 45.7863 67.2328 49.7509 67.2328 58.5104V61.0152C67.2328 72.3813 62.3279 79.1603 51.9959 79.1603Z" fill="#104FFF"/>
<path fill-rule="evenodd" clip-rule="evenodd" d="M97.529 0.679199V11.9225H82.6472V32.2262H94.3244V43.9916H82.6472V66.3765H98.1482V78.1407H70.9688V0.679199H97.529Z" fill="#104FFF"/>
<path fill-rule="evenodd" clip-rule="evenodd" d="M128.645 52.0089L125.479 23.3754L122.419 52.0089H128.645ZM129.909 63.5635H121.259L119.677 78.1407H109.02L118.62 0.679199H132.759L142.994 78.1407H131.494L129.909 63.5635Z" fill="#104FFF"/>
<path fill-rule="evenodd" clip-rule="evenodd" d="M156.573 32.5375H159.727C162.985 32.5375 164.037 30.455 164.037 27.0194V16.1916C164.037 12.8602 163.301 11.1944 159.727 11.1944H156.573V32.5375ZM156.573 78.1407H144.693V0.679199H163.933C171.817 0.679199 175.812 4.01064 175.812 12.6518V26.3943C175.812 32.85 172.762 35.348 170.661 36.2857C173.288 37.4305 175.812 39.5141 175.812 44.7185V71.8934C175.812 75.0164 176.442 76.4726 176.969 77.6174V78.1407H165.193C164.667 77.3073 164.037 75.9541 164.037 71.7892V48.4679C164.037 45.031 163.407 43.5737 159.621 43.5737H156.573V78.1407Z" fill="#104FFF"/>
<path fill-rule="evenodd" clip-rule="evenodd" d="M199.072 11.9225V78.1407H187.481V11.9225H177.648V0.679199H208.905V11.9225H199.072Z" fill="#104FFF"/>
<path fill-rule="evenodd" clip-rule="evenodd" d="M236.007 52.0089L232.841 23.3754L229.781 52.0089H236.007ZM237.272 63.5635H228.62L227.037 78.1407H216.381L225.983 0.679199H240.12L250.355 78.1407H238.855L237.272 63.5635Z" fill="#104FFF"/>
<path fill-rule="evenodd" clip-rule="evenodd" d="M262.951 0.679199L272.991 42.2205V0.679199H283.649V78.1407H274.129L262.951 33.5781V78.1407H252.393V0.679199H262.951Z" fill="#104FFF"/>
<path fill-rule="evenodd" clip-rule="evenodd" d="M300.178 66.895H302.991C306.533 66.895 307.576 65.0221 307.576 60.8584V17.2334C307.576 12.756 306.43 11.1944 303.511 11.1944H300.178V66.895ZM288.404 0.679199H306.43C316.534 0.679199 319.661 6.40444 319.661 15.5677V62.7313C319.661 72.2047 316.119 78.1407 306.43 78.1407H288.404V0.679199Z" fill="#104FFF"/>
<path fill-rule="evenodd" clip-rule="evenodd" d="M12.0765 146.736H14.889C18.4313 146.736 19.4739 144.863 19.4739 140.7V97.074C19.4739 92.5977 18.3282 91.0349 15.4103 91.0349H12.0765V146.736ZM0.302734 80.5195H18.3282C28.4327 80.5195 31.5591 86.2461 31.5591 95.4071V142.574C31.5591 152.046 28.0168 157.981 18.3282 157.981H0.302734V80.5195Z" fill="#104FFF"/>
<path fill-rule="evenodd" clip-rule="evenodd" d="M62.5336 80.5195V91.7642H47.653V112.066H59.3302V123.833H47.653V146.218H63.1541V157.981H35.9746V80.5195H62.5336Z" fill="#104FFF"/>
<path fill-rule="evenodd" clip-rule="evenodd" d="M82.2342 159H79.9378C70.5445 159 65.5352 153.89 65.5352 144.293V128.754H77.2248V142.313C77.2248 145.859 78.3724 147.736 81.0854 147.736C83.9039 147.736 84.9483 145.859 84.9483 141.062V139.289C84.9483 133.761 84.4261 131.78 80.1479 126.252L72.632 116.656C67.6227 110.19 66.1618 105.185 66.1618 97.4686V94.9639C66.1618 84.6381 71.3788 79.8398 80.6688 79.8398H82.8608C92.5662 79.8398 96.3235 84.1187 96.3235 93.2941V106.02H84.9483V94.8596C84.9483 92.2517 84.4261 90.27 81.6075 90.27C78.7902 90.27 78.1635 92.043 78.1635 95.6933V97.1543C78.1635 101.534 78.999 103.934 82.964 109.043L90.4786 118.742C95.8013 125.626 97.4711 129.589 97.4711 138.351V140.854C97.4711 152.22 92.5662 159 82.2342 159Z" fill="#104FFF"/>
<mask id="mask0_448_1061" style="mask-type:alpha" maskUnits="userSpaceOnUse" x="100" y="79" width="49" height="80">
<path d="M100.572 79.8726H148.242V158.928H100.572V79.8726Z" fill="white"/>
</mask>
<g mask="url(#mask0_448_1061)">
<path fill-rule="evenodd" clip-rule="evenodd" d="M100.572 157.96H112.463V80.6021H100.572V157.96Z" fill="#104FFF"/>
<path fill-rule="evenodd" clip-rule="evenodd" d="M127.936 159C120.991 159 116.572 152.866 116.572 144.86V96.5089C116.572 87.8804 119.939 79.8726 131.199 79.8726H133.513C146.246 79.8726 147.719 88.0873 147.719 97.2385V105.141H136.144V96.4049C136.144 92.975 135.301 91.1034 132.357 91.1034C129.831 91.1034 128.673 92.975 128.673 96.4049V141.637C128.673 145.275 130.146 147.148 132.566 147.148C135.618 147.148 136.985 145.068 136.985 142.156V122.817H131.618V110.963H148.244V157.96H141.51C141.405 157.544 140.458 153.698 139.511 150.371C138.668 152.97 134.67 159 128.673 159H127.936Z" fill="#104FFF"/>
</g>
<path fill-rule="evenodd" clip-rule="evenodd" d="M162.725 80.5195L172.765 122.06V80.5195H183.424V157.981H173.903L162.725 113.419V157.981H152.168V80.5195H162.725Z" fill="#104FFF"/>
<path fill-rule="evenodd" clip-rule="evenodd" d="M214.392 159H212.096C202.704 159 197.693 153.89 197.693 144.293V128.754H209.383V142.313C209.383 145.859 210.531 147.736 213.245 147.736C216.062 147.736 217.105 145.859 217.105 141.062V139.289C217.105 133.761 216.584 131.78 212.304 126.252L204.79 116.656C199.781 110.19 198.32 105.185 198.32 97.4686V94.9639C198.32 84.6381 203.538 79.8398 212.827 79.8398H215.019C224.724 79.8398 228.482 84.1187 228.482 93.2941V106.02H217.105V94.8596C217.105 92.2517 216.584 90.27 213.766 90.27C210.948 90.27 210.323 92.043 210.323 95.6933V97.1543C210.323 101.534 211.157 103.934 215.122 109.043L222.637 118.742C227.959 125.626 229.629 129.589 229.629 138.351V140.854C229.629 152.22 224.724 159 214.392 159Z" fill="#104FFF"/>
<path fill-rule="evenodd" clip-rule="evenodd" d="M252.126 142.335V124.316H263.604V142.231C263.604 150.565 260.915 159 249.645 159H247.059C235.271 159 232.688 150.46 232.688 142.649V95.3597C232.688 87.4459 236.098 79.8398 246.647 79.8398H249.335C262.157 79.8398 263.604 88.3827 263.604 95.9863V109.837H252.126V96.1935C252.126 92.8607 251.092 91.0901 248.199 91.0901C245.302 91.0901 244.578 92.7577 244.578 96.1935V142.231C244.578 145.668 245.715 147.543 248.301 147.543C251.092 147.543 252.126 145.459 252.126 142.335Z" fill="#104FFF"/>
<path fill-rule="evenodd" clip-rule="evenodd" d="M286.941 123.937H278.998V157.981H267.342V80.5195H278.998V111.546H286.941V80.5195H298.598V157.981H286.941V123.937Z" fill="#104FFF"/>
<path fill-rule="evenodd" clip-rule="evenodd" d="M323.277 97.0273C323.277 92.9649 321.919 91.0901 319.204 91.0901C316.176 91.0901 315.025 93.0704 315.025 97.0273V141.607C315.025 144.939 315.965 147.543 319.308 147.543C322.442 147.543 323.277 144.939 323.277 141.607V97.0273ZM335.289 140.774C335.289 151.605 331.632 159 320.248 159H318.262C306.982 159 303.014 151.605 303.014 140.774V97.6514C303.014 86.9235 307.087 79.8398 318.158 79.8398H320.144C331.632 79.8398 335.289 86.9235 335.289 97.5472V140.774Z" fill="#104FFF"/>
<path fill-rule="evenodd" clip-rule="evenodd" d="M358.952 97.0273C358.952 92.9649 357.593 91.0901 354.878 91.0901C351.849 91.0901 350.699 93.0704 350.699 97.0273V141.607C350.699 144.939 351.639 147.543 354.981 147.543C358.115 147.543 358.952 144.939 358.952 141.607V97.0273ZM370.963 140.774C370.963 151.605 367.307 159 355.922 159H353.937C342.656 159 338.688 151.605 338.688 140.774V97.6514C338.688 86.9235 342.76 79.8398 353.832 79.8398H355.818C367.307 79.8398 370.963 86.9235 370.963 97.5472V140.774Z" fill="#104FFF"/>
<path fill-rule="evenodd" clip-rule="evenodd" d="M387.159 80.5195V146.008H401.541V157.981H375.381V80.5195H387.159Z" fill="#104FFF"/>
</svg>
